<?xml version="1.0" encoding="iso-8859-1"?>
<!-- Generator: Adobe Illustrator 16.0.0, SVG Export Plug-In . SVG Version: 6.00 Build 0)  -->
<!DOCTYPE svg PUBLIC "-//W3C//DTD SVG 1.1//EN" "http://www.w3.org/Graphics/SVG/1.1/DTD/svg11.dtd">
<svg version="1.1" id="Capa_1" xmlns="http://www.w3.org/2000/svg" xmlns:xlink="http://www.w3.org/1999/xlink" x="0px" y="0px"
	 width="321.5px" height="321.499px" viewBox="0 0 321.5 321.499" style="enable-background:new 0 0 321.5 321.499;"
	 xml:space="preserve">
<g>
	<g>
		<path d="M317.211,190.957c0.249-1.062-0.527-2.388-1.48-2.941c-17.104-9.896-33.067-23.617-50.228-32.061
			c-0.989-0.484-1.135-1.465-0.316-2.19c0.191-0.171,0.384-0.339,0.564-0.505c0.818-0.732,0.616-1.822-0.367-2.317
			c-7.167-3.647-14.007-6.309-25.958-10.524c-1.036-0.365-2.19-1.496-2.724-2.449c-5.391-9.53-22.593-15.876-33.928-15.896
			c-1.098,0-1.175,0.44-0.201,0.937c2.428,1.24,5.349,3.024,7.026,5.833c0.56,0.939-0.016,1.543-1.072,1.245
			c-12.463-3.503-27.252-6.193-42.356-6.589c-40.149-1.067-88.766,10.55-139.82,44.923c-0.912,0.615-0.857,1.527,0.125,2.024
			c14.151,7.114,27.545,10.31,41.145,13.654c1.067,0.265,2.667-0.016,3.583-0.61c29.233-18.988,55.639-25.332,88.652-26.815
			c1.098-0.046,1.595-0.885,1.028-1.822c-1.595-2.636-3.821-5.362-5.388-7.998c-0.562-0.942-0.052-1.659,1.036-1.499
			c13.859,2.015,30.284,9.518,43.219,15.879c0.989,0.481,1.973,1.066,2.263,1.237c0.285,0.177,0.56,1.196,0.652,2.289
			c1.295,14.975,7.446,25.569,23.12,29.138c1.072,0.242,2.827,0.3,3.92,0.165c5.712-0.699,12.185-1.885,17.533-5.354
			c0.917-0.596,2.444-0.812,3.438-0.347c4.645,2.186,13.676,7.188,17.362,10.589c0.808,0.741,0.481,1.171-0.528,0.746
			c-5.101-2.154-9.289-4.847-15.255-5.924c-1.077-0.196-2.708,0.197-3.687,0.704c-4.961,2.61-12.94,4.903-20.723,5.245
			c-1.093,0.047-2.869-0.066-3.946-0.243c-20.396-3.319-25.632-14.343-32.265-31.012c-0.404-1.02-1.595-2.081-2.662-2.319
			c-6.094-1.357-14.162-2.045-22.656-1.817c-21.834,0.59-46.974,9.005-64.258,26.19c-0.779,0.777-0.567,1.761,0.445,2.18
			c10.032,4.148,19.475,7.773,27.949,13.728c0.896,0.632,2.185,0.497,2.964-0.279c5.005-4.981,19.962-16.979,41.461-17.326
			c1.099-0.016,1.14,0.279,0.104,0.642c-16.463,5.732-23.479,11.31-32.275,25.508c-0.58,0.933-0.207,2.056,0.583,2.822
			c3.824,3.682,8.697,14.659,12.816,24.353c0.43,1.01,0.981,0.963,1.261-0.093c7.861-29.743,26.683-38.8,42.326-45.2
			c1.016-0.414,2.61-0.3,3.553,0.259c6.814,4.08,13.996,8.989,22.949,8.467c8.088-0.477,14.924-2.145,20.806-4.816
			c0.999-0.45,2.589-0.461,3.573,0.016c10.688,5.215,21.935,10.32,26.838,21.852c0.43,1.005,1.601,1.9,2.692,1.988
			c4.407,0.357,8.431,1.031,11.532,1.522c1.082,0.166,2.594-0.331,3.345-1.128c0.622-0.658,1.341-1.44,1.916-2.129
			c0.704-0.844,0.176-1.729-0.911-1.874c-11.578-1.533-18.242-6.488-17.896-13.075c0.248-4.831,4.852-7.876,10.874-7.265
			c6.736,0.688,16.859,5.805,26.895,15.338c0.793,0.751,1.797,1.434,2.258,1.47c0.461,0.042,1.176-0.781,1.605-1.791
			c0.803-1.885,1.621-3.931,1.771-6.084c0.083-1.093-0.771-2.522-1.559-3.289C314.338,200.795,316.399,194.437,317.211,190.957z
			 M230.53,137.757c-4.847-2.349-8.025-3.167-13.883-4.984c-1.051-0.323-1.01-0.657,0.083-0.717c0.876-0.042,1.781-0.052,3.014,0.06
			c1.093,0.093,1.637-0.606,0.938-1.455c-0.461-0.56-1.015-1.095-1.636-1.675c-0.809-0.746-0.611-1.084,0.419-0.709
			c5.188,1.893,7.954,4.254,11.609,8.808C231.762,137.94,231.514,138.233,230.53,137.757z M290.399,180.047
			c-10.392-5.24-23.964-13.873-30.695-17.647c-0.958-0.533-2.382-0.311-3.293,0.29c-0.207,0.14-0.425,0.274-0.658,0.404
			c-0.958,0.543-2.346,0.104-3.111-0.679c-2.926-2.952-9.575-8.477-15.255-13.486c-0.823-0.728-0.596-1.23,0.445-0.886
			c9.206,3.076,42.093,21.756,52.909,31.506C291.554,180.285,291.373,180.538,290.399,180.047z M311.64,200.003
			c-3.309-2.186-7.384-4.774-8.606-9.129c-0.3-1.057,0.497-2.273,1.585-2.419c1.527-0.201,3.112-0.066,4.702,0.166
			c1.087,0.16,1.397,1.016,0.538,1.704c-0.829,0.663-1.563,1.19-1.688,2.076c-0.191,1.362,2.035,4.93,3.812,7.213
			C312.661,200.475,312.557,200.608,311.64,200.003z"/>
		<path d="M147.672,115.708c0.572,0.935,1.882,1.634,2.975,1.559c14.264-0.953,27.926,1.693,38.955,2.255
			c1.098,0.057,1.569-0.707,1.025-1.66c-12.842-22.52-39.802-39.641-61.27-39.232c-34.057,0.645-40.369,18.271-57.298,16.679
			c-6.193-0.583-11.75-3.371-16.586-7.083c-0.87-0.668-1.25-0.401-0.891,0.631c3.917,11.13,7.327,20.855,20.143,21.225
			c9.424,0.272,31.83-10.237,48.783-10.677C129.803,99.25,140.413,103.837,147.672,115.708z"/>
		<path d="M112.181,108.857c-14.107-0.259-38.595,10.893-54.79,9.81c-15.791-1.056-23.503-6.315-26.613-30.085
			c-0.143-1.087-0.507-1.119-0.8-0.065c-1.852,6.678-2.597,13.51-1.939,19.02c2.162,18.129,16.981,29.8,32.979,31.195
			c1.093,0.094,2.812-0.196,3.834-0.59c21.914-8.36,43.162-16.415,66.609-18.924c1.092-0.116,1.786-1.087,1.235-2.029
			C129.722,112.065,119.897,108.995,112.181,108.857z"/>
		<path d="M22.698,155.598c13.852-0.101,22.246-4.939,28.99-9.584c0.901-0.622,0.826-1.522-0.127-2.063
			c-5.145-2.923-12.663-8.526-19.216-7.874c-12.5,1.246-13.883,9.818-31.084,3.493c-1.028-0.376-1.538,0.116-1.108,1.123
			C4.909,151.823,11.633,155.678,22.698,155.598z"/>
	</g>
</g>
<g>
</g>
<g>
</g>
<g>
</g>
<g>
</g>
<g>
</g>
<g>
</g>
<g>
</g>
<g>
</g>
<g>
</g>
<g>
</g>
<g>
</g>
<g>
</g>
<g>
</g>
<g>
</g>
<g>
</g>
</svg>
